<mxfile host="app.diagrams.net" agent="Mozilla/5.0 (Windows NT 10.0; Win64; x64) AppleWebKit/537.36 (KHTML, like Gecko) Chrome/134.0.0.0 Safari/537.36" version="26.1.0">
  <diagram name="Page-1" id="RA6sWNqXTBad39I0iHvn">
    <mxGraphModel dx="1050" dy="557" grid="1" gridSize="10" guides="1" tooltips="1" connect="1" arrows="1" fold="1" page="1" pageScale="1" pageWidth="1654" pageHeight="2336" math="0" shadow="0">
      <root>
        <mxCell id="0" />
        <mxCell id="1" parent="0" />
        <mxCell id="b08q-1B3hXDB1EEhHDd4-14" value="Music" style="swimlane;fontStyle=0;childLayout=stackLayout;horizontal=1;startSize=26;horizontalStack=0;resizeParent=1;resizeParentMax=0;resizeLast=0;collapsible=1;marginBottom=0;align=center;fontSize=14;" vertex="1" parent="1">
          <mxGeometry x="140" y="173" width="160" height="176" as="geometry" />
        </mxCell>
        <mxCell id="b08q-1B3hXDB1EEhHDd4-15" value="SongID{PK}" style="text;strokeColor=none;fillColor=none;spacingLeft=4;spacingRight=4;overflow=hidden;rotatable=0;points=[[0,0.5],[1,0.5]];portConstraint=eastwest;fontSize=12;whiteSpace=wrap;html=1;" vertex="1" parent="b08q-1B3hXDB1EEhHDd4-14">
          <mxGeometry y="26" width="160" height="30" as="geometry" />
        </mxCell>
        <mxCell id="b08q-1B3hXDB1EEhHDd4-16" value="UserID{FK}" style="text;strokeColor=none;fillColor=none;spacingLeft=4;spacingRight=4;overflow=hidden;rotatable=0;points=[[0,0.5],[1,0.5]];portConstraint=eastwest;fontSize=12;whiteSpace=wrap;html=1;" vertex="1" parent="b08q-1B3hXDB1EEhHDd4-14">
          <mxGeometry y="56" width="160" height="30" as="geometry" />
        </mxCell>
        <mxCell id="b08q-1B3hXDB1EEhHDd4-17" value="FileType" style="text;strokeColor=none;fillColor=none;spacingLeft=4;spacingRight=4;overflow=hidden;rotatable=0;points=[[0,0.5],[1,0.5]];portConstraint=eastwest;fontSize=12;whiteSpace=wrap;html=1;" vertex="1" parent="b08q-1B3hXDB1EEhHDd4-14">
          <mxGeometry y="86" width="160" height="30" as="geometry" />
        </mxCell>
        <mxCell id="b08q-1B3hXDB1EEhHDd4-57" value="Title" style="text;strokeColor=none;fillColor=none;spacingLeft=4;spacingRight=4;overflow=hidden;rotatable=0;points=[[0,0.5],[1,0.5]];portConstraint=eastwest;fontSize=12;whiteSpace=wrap;html=1;" vertex="1" parent="b08q-1B3hXDB1EEhHDd4-14">
          <mxGeometry y="116" width="160" height="30" as="geometry" />
        </mxCell>
        <mxCell id="b08q-1B3hXDB1EEhHDd4-58" value="Genre" style="text;strokeColor=none;fillColor=none;spacingLeft=4;spacingRight=4;overflow=hidden;rotatable=0;points=[[0,0.5],[1,0.5]];portConstraint=eastwest;fontSize=12;whiteSpace=wrap;html=1;" vertex="1" parent="b08q-1B3hXDB1EEhHDd4-14">
          <mxGeometry y="146" width="160" height="30" as="geometry" />
        </mxCell>
        <mxCell id="b08q-1B3hXDB1EEhHDd4-18" value="User" style="swimlane;fontStyle=0;childLayout=stackLayout;horizontal=1;startSize=26;horizontalStack=0;resizeParent=1;resizeParentMax=0;resizeLast=0;collapsible=1;marginBottom=0;align=center;fontSize=14;" vertex="1" parent="1">
          <mxGeometry x="480" y="160" width="160" height="146" as="geometry" />
        </mxCell>
        <mxCell id="b08q-1B3hXDB1EEhHDd4-19" value="UserID{PK}" style="text;strokeColor=none;fillColor=none;spacingLeft=4;spacingRight=4;overflow=hidden;rotatable=0;points=[[0,0.5],[1,0.5]];portConstraint=eastwest;fontSize=12;whiteSpace=wrap;html=1;" vertex="1" parent="b08q-1B3hXDB1EEhHDd4-18">
          <mxGeometry y="26" width="160" height="30" as="geometry" />
        </mxCell>
        <mxCell id="b08q-1B3hXDB1EEhHDd4-20" value="Username" style="text;strokeColor=none;fillColor=none;spacingLeft=4;spacingRight=4;overflow=hidden;rotatable=0;points=[[0,0.5],[1,0.5]];portConstraint=eastwest;fontSize=12;whiteSpace=wrap;html=1;" vertex="1" parent="b08q-1B3hXDB1EEhHDd4-18">
          <mxGeometry y="56" width="160" height="30" as="geometry" />
        </mxCell>
        <mxCell id="b08q-1B3hXDB1EEhHDd4-21" value="ProfilePicture" style="text;strokeColor=none;fillColor=none;spacingLeft=4;spacingRight=4;overflow=hidden;rotatable=0;points=[[0,0.5],[1,0.5]];portConstraint=eastwest;fontSize=12;whiteSpace=wrap;html=1;" vertex="1" parent="b08q-1B3hXDB1EEhHDd4-18">
          <mxGeometry y="86" width="160" height="30" as="geometry" />
        </mxCell>
        <mxCell id="b08q-1B3hXDB1EEhHDd4-59" value="Email" style="text;strokeColor=none;fillColor=none;spacingLeft=4;spacingRight=4;overflow=hidden;rotatable=0;points=[[0,0.5],[1,0.5]];portConstraint=eastwest;fontSize=12;whiteSpace=wrap;html=1;" vertex="1" parent="b08q-1B3hXDB1EEhHDd4-18">
          <mxGeometry y="116" width="160" height="30" as="geometry" />
        </mxCell>
        <mxCell id="b08q-1B3hXDB1EEhHDd4-61" style="edgeStyle=orthogonalEdgeStyle;rounded=0;orthogonalLoop=1;jettySize=auto;html=1;endArrow=none;startFill=0;" edge="1" parent="1" source="b08q-1B3hXDB1EEhHDd4-22">
          <mxGeometry relative="1" as="geometry">
            <mxPoint x="210" y="350" as="targetPoint" />
          </mxGeometry>
        </mxCell>
        <mxCell id="b08q-1B3hXDB1EEhHDd4-62" style="edgeStyle=orthogonalEdgeStyle;rounded=0;orthogonalLoop=1;jettySize=auto;html=1;endArrow=none;startFill=0;" edge="1" parent="1" source="b08q-1B3hXDB1EEhHDd4-51">
          <mxGeometry relative="1" as="geometry">
            <mxPoint x="580" y="310" as="targetPoint" />
          </mxGeometry>
        </mxCell>
        <mxCell id="b08q-1B3hXDB1EEhHDd4-22" value="Playlist" style="swimlane;fontStyle=0;childLayout=stackLayout;horizontal=1;startSize=26;horizontalStack=0;resizeParent=1;resizeParentMax=0;resizeLast=0;collapsible=1;marginBottom=0;align=center;fontSize=14;" vertex="1" parent="1">
          <mxGeometry x="340" y="400" width="160" height="146" as="geometry" />
        </mxCell>
        <mxCell id="b08q-1B3hXDB1EEhHDd4-23" value="PlaylistID{FK}" style="text;strokeColor=none;fillColor=none;spacingLeft=4;spacingRight=4;overflow=hidden;rotatable=0;points=[[0,0.5],[1,0.5]];portConstraint=eastwest;fontSize=12;whiteSpace=wrap;html=1;" vertex="1" parent="b08q-1B3hXDB1EEhHDd4-22">
          <mxGeometry y="26" width="160" height="30" as="geometry" />
        </mxCell>
        <mxCell id="b08q-1B3hXDB1EEhHDd4-24" value="UserID{FK1}" style="text;strokeColor=none;fillColor=none;spacingLeft=4;spacingRight=4;overflow=hidden;rotatable=0;points=[[0,0.5],[1,0.5]];portConstraint=eastwest;fontSize=12;whiteSpace=wrap;html=1;" vertex="1" parent="b08q-1B3hXDB1EEhHDd4-22">
          <mxGeometry y="56" width="160" height="30" as="geometry" />
        </mxCell>
        <mxCell id="b08q-1B3hXDB1EEhHDd4-25" value="SongID{FK2}" style="text;strokeColor=none;fillColor=none;spacingLeft=4;spacingRight=4;overflow=hidden;rotatable=0;points=[[0,0.5],[1,0.5]];portConstraint=eastwest;fontSize=12;whiteSpace=wrap;html=1;" vertex="1" parent="b08q-1B3hXDB1EEhHDd4-22">
          <mxGeometry y="86" width="160" height="30" as="geometry" />
        </mxCell>
        <mxCell id="b08q-1B3hXDB1EEhHDd4-60" value="Name" style="text;strokeColor=none;fillColor=none;spacingLeft=4;spacingRight=4;overflow=hidden;rotatable=0;points=[[0,0.5],[1,0.5]];portConstraint=eastwest;fontSize=12;whiteSpace=wrap;html=1;" vertex="1" parent="b08q-1B3hXDB1EEhHDd4-22">
          <mxGeometry y="116" width="160" height="30" as="geometry" />
        </mxCell>
        <mxCell id="b08q-1B3hXDB1EEhHDd4-39" value="Listens&lt;div&gt;Accesses&lt;/div&gt;&lt;div&gt;Uploads&lt;/div&gt;" style="text;html=1;align=center;verticalAlign=middle;resizable=0;points=[];autosize=1;strokeColor=none;fillColor=none;" vertex="1" parent="1">
          <mxGeometry x="590" width="70" height="60" as="geometry" />
        </mxCell>
        <mxCell id="b08q-1B3hXDB1EEhHDd4-42" value="0..1" style="text;html=1;align=center;verticalAlign=middle;resizable=0;points=[];autosize=1;strokeColor=none;fillColor=none;" vertex="1" parent="1">
          <mxGeometry x="300" y="450" width="40" height="30" as="geometry" />
        </mxCell>
        <mxCell id="b08q-1B3hXDB1EEhHDd4-43" value="1..*" style="text;html=1;align=center;verticalAlign=middle;resizable=0;points=[];autosize=1;strokeColor=none;fillColor=none;" vertex="1" parent="1">
          <mxGeometry x="500" y="440" width="40" height="30" as="geometry" />
        </mxCell>
        <mxCell id="b08q-1B3hXDB1EEhHDd4-47" value="Child gets the many to many whereas the the parent gets the one to one" style="text;html=1;align=center;verticalAlign=middle;resizable=0;points=[];autosize=1;strokeColor=none;fillColor=none;" vertex="1" parent="1">
          <mxGeometry x="640" y="70" width="410" height="30" as="geometry" />
        </mxCell>
        <mxCell id="b08q-1B3hXDB1EEhHDd4-50" value="0..1" style="text;html=1;align=center;verticalAlign=middle;resizable=0;points=[];autosize=1;strokeColor=none;fillColor=none;" vertex="1" parent="1">
          <mxGeometry x="155" y="349" width="40" height="30" as="geometry" />
        </mxCell>
        <mxCell id="b08q-1B3hXDB1EEhHDd4-54" value="A playlist can have no songs on it or some songs" style="text;html=1;align=center;verticalAlign=middle;resizable=0;points=[];autosize=1;strokeColor=none;fillColor=none;" vertex="1" parent="1">
          <mxGeometry x="290" y="546" width="280" height="30" as="geometry" />
        </mxCell>
        <mxCell id="b08q-1B3hXDB1EEhHDd4-55" value="" style="endArrow=classic;html=1;rounded=0;" edge="1" parent="1">
          <mxGeometry width="50" height="50" relative="1" as="geometry">
            <mxPoint x="130" y="440" as="sourcePoint" />
            <mxPoint x="210" y="440" as="targetPoint" />
          </mxGeometry>
        </mxCell>
        <mxCell id="b08q-1B3hXDB1EEhHDd4-56" value="Is added" style="text;html=1;align=center;verticalAlign=middle;resizable=0;points=[];autosize=1;strokeColor=none;fillColor=none;" vertex="1" parent="1">
          <mxGeometry x="140" y="410" width="70" height="30" as="geometry" />
        </mxCell>
        <mxCell id="b08q-1B3hXDB1EEhHDd4-63" value="" style="edgeStyle=orthogonalEdgeStyle;rounded=0;orthogonalLoop=1;jettySize=auto;html=1;endArrow=none;startFill=0;" edge="1" parent="1" source="b08q-1B3hXDB1EEhHDd4-22" target="b08q-1B3hXDB1EEhHDd4-51">
          <mxGeometry relative="1" as="geometry">
            <mxPoint x="580" y="310" as="targetPoint" />
            <mxPoint x="500" y="473" as="sourcePoint" />
          </mxGeometry>
        </mxCell>
        <mxCell id="b08q-1B3hXDB1EEhHDd4-51" value="1..1" style="text;html=1;align=center;verticalAlign=middle;resizable=0;points=[];autosize=1;strokeColor=none;fillColor=none;" vertex="1" parent="1">
          <mxGeometry x="540" y="306" width="40" height="30" as="geometry" />
        </mxCell>
        <mxCell id="b08q-1B3hXDB1EEhHDd4-64" value="Creates" style="text;html=1;align=center;verticalAlign=middle;resizable=0;points=[];autosize=1;strokeColor=none;fillColor=none;" vertex="1" parent="1">
          <mxGeometry x="560" y="379" width="70" height="30" as="geometry" />
        </mxCell>
        <mxCell id="b08q-1B3hXDB1EEhHDd4-65" value="" style="endArrow=classic;html=1;rounded=0;" edge="1" parent="1">
          <mxGeometry width="50" height="50" relative="1" as="geometry">
            <mxPoint x="640" y="400" as="sourcePoint" />
            <mxPoint x="570" y="400" as="targetPoint" />
          </mxGeometry>
        </mxCell>
      </root>
    </mxGraphModel>
  </diagram>
</mxfile>
